<svg xmlns="http://www.w3.org/2000/svg" width="256" height="256"><path fill="#1976D2" fill-opacity=".016" fill-rule="evenodd" d="M0 128.004v128.004l128.25-.254 128.25-.254.254-127.75L257.008 0H0v128.004m.485.496c0 70.4.119 99.053.265 63.672.146-35.38.146-92.98 0-128C.604 29.153.485 58.1.485 128.5"/><path fill="#1976D2" fill-opacity=".211" fill-rule="evenodd" d="M107.612 45.819c-.318.514.125 3.301.984 6.193 1.419 4.779 1.418 5.403-.015 6.836-1.033 1.032-2.95 1.478-5.55 1.29-4.95-.357-9.031 3.141-9.031 7.74 0 3.209 1.825 5.019 10.25 10.173 5.401 3.303 6.268 5.949 1.95 5.949-1.54 0-3.295.495-3.9 1.1-.8.8-1.652.548-3.125-.925L97.15 82.15l3.425.556c2.209.358 3.425.154 3.425-.575 0-.726-2.349-1.131-6.567-1.131-5.786 0-6.506-.208-6.048-1.75 1.545-5.201 1.667-7.287.55-9.407-1.547-2.935-2.838-3.808-5.662-3.828-3.768-.026-5.648 4.122-4.88 10.764l.662 5.721-2.517-3.681c-1.384-2.025-3.984-4.212-5.777-4.861-3.251-1.175-3.261-1.201-3.261-8.052 0-6.592-.151-7.024-3.699-10.572-3.25-3.25-4.407-3.75-9.532-4.121-3.87-.28-7.085.101-9.551 1.132-3.94 1.646-4.99 4.51-1.946 5.306 1.263.33 2.85 3.825 5.522 12.156 2.063 6.431 5.766 16.114 8.229 21.517 2.995 6.57 4.285 10.591 3.896 12.141-.805 3.208.672 3.767 5.475 2.073L73 104.089v75.619l2.452 2.646C77.83 184.92 78.253 185 89.401 185c10.701 0 11.672-.164 14.047-2.365l2.552-2.364V89h2.845c3.503 0 6.155-2.754 6.155-6.393 0-3.149-3.08-6.38-10.5-11.013-2.75-1.717-5-3.742-5-4.499 0-2.043 4.737-4.226 9.69-4.465 2.377-.115 2.832.394 3.905 4.37.953 3.533 5.166 13.526 7.658 18.165.196.366-.573.96-1.709 1.321-4.859 1.542-5.044 3.352-5.044 49.409v42.993l2.412 2.806c2.302 2.678 2.875 2.822 12.562 3.152 9.874.336 16.026-.826 16.026-3.026 0-.516.45-.66 1-.32s1 .115 1-.5.399-.871.887-.57c.487.301 1.5-.235 2.25-1.191 1.217-1.553 1.186-1.6-.298-.44-.914.714-1.814.939-2 .5-.186-.44-.114-6.424.161-13.299.413-10.325.646-11.76 1.338-8.25.461 2.338 1.136 4.249 1.5 4.249.364-.001.512 2.396.329 5.327-.288 4.628.085 5.946 2.833 10.018 4.801 7.114 6.999 7.873 21.686 7.485 9.975-.263 12.714-.648 13.647-1.917.642-.873 1.641-1.427 2.221-1.232 1.782.602-.012-11.107-3.972-25.911-2.904-10.86-3.443-14.16-2.577-15.778.602-1.126 1.592-1.74 2.2-1.364.654.404.822.225.412-.438-.381-.616.189-2.848 1.266-4.959 6.328-12.405 4.181-31.575-4.544-40.558-6.93-7.135-6.942-7.137-35.695-7.484-21.019-.254-25.535-.547-24.142-1.566 1.59-1.162 1.5-1.679-1.255-7.187-2.949-5.897-6.772-16.395-6.099-16.75 3.463-1.822 4.404-2.736 4.672-4.537.347-2.337-2.058-2.918-4.82-1.166-1.202.763-1.814.015-3.081-3.765-1.125-3.354-2.181-4.806-3.656-5.024-1.141-.169-2.334.113-2.651.626M55.906 64.25c1.529 4.537 2.996 8.912 3.261 9.722.373 1.143 1.078.874 3.157-1.205C68.121 66.97 63.74 56 55.629 56h-2.502l2.779 8.25m8.299 15.56-2.294 1.766 4.294 8.397c2.362 4.618 4.745 8.426 5.295 8.462.55.036 1.146-1.735 1.324-3.935.178-2.2 1.006-4.755 1.84-5.678 1.742-1.928 1.196-4.46-1.778-8.24-2.359-2.998-5.432-3.272-8.681-.772M127 82c0 .639 8.647 1 23.941 1 14.882 0 24.175-.378 24.559-1 .406-.656-7.823-1-23.941-1-15.706 0-24.559.36-24.559 1m-37.556.889c-.214.215-.15.777.142 1.25.815 1.319 5.138 1.023 5.68-.389.317-.826-.523-1.25-2.477-1.25-1.625 0-3.131.175-3.345.389M178.5 83c-.34.55-.141 1 .441 1S180 83.55 180 83s-.198-1-.441-1-.719.45-1.059 1m2.5 1.059c0 .582.412.805.915.494.503-.311 1.09-.039 1.304.603.214.643 1.155 1.282 2.09 1.419.935.137 1.442-.168 1.127-.679-.316-.511-.946-.699-1.4-.418-.455.281-1.084-.162-1.4-.984-.654-1.705-2.636-2.032-2.636-.435M189.543 90c.509.825.933 1.912.942 2.417.008.504.589 1.033 1.29 1.175.701.142.811.028.244-.252-.567-.281-.809-.871-.536-1.312.272-.441-.261-1.415-1.186-2.165-1.448-1.174-1.552-1.155-.754.137M195 104c0 .55.45 1 1 1s1-.45 1-1-.45-1-1-1-1 .45-1 1m1.685 7.097c-.302 1.154-.158 3.066.32 4.25.699 1.735.881 1.327.932-2.097.069-4.635-.395-5.432-1.252-2.153m-48.475 9.153c.264 7.525.476 8.276 2.402 8.551 1.178.169 3.5-.866 5.25-2.338 4.179-3.517 4.333-8.379.388-12.258l-2.75-2.705-.296 6.75c-.378 8.64-2.204 8.847-2.204.25 0-5.187-.311-6.5-1.54-6.5-1.287 0-1.493 1.361-1.25 8.25M195 122c0 .55.45 1 1 1s1-.45 1-1-.45-1-1-1-1 .45-1 1m-.5 4c.34.55.816 1 1.059 1s.441-.45.441-1-.477-1-1.059-1-.781.45-.441 1m-6.5 16.059c0 .582.45.781 1 .441s1-.816 1-1.059-.45-.441-1-.441-1 .477-1 1.059m1 4c0 .582.45.781 1 .441s1-.816 1-1.059-.45-.441-1-.441-1 .477-1 1.059m2.5 6.941c-.34.55-.141 1 .441 1s1.059-.45 1.059-1-.198-1-.441-1-.719.45-1.059 1m2 8c-.34.55-.141 1 .441 1s1.059-.45 1.059-1-.198-1-.441-1-.719.45-1.059 1m1 4c-.34.55-.141 1 .441 1s1.059-.45 1.059-1-.198-1-.441-1-.719.45-1.059 1m.5 4c0 .55.45 1 1 1s1-.45 1-1-.45-1-1-1-1 .45-1 1"/><path fill="#1976D2" fill-opacity=".328" fill-rule="evenodd" d="M108.077 47.25c.042 1.237.622 4.05 1.288 6.25 1.089 3.597 1.015 4.16-.736 5.588-2.285 1.863-1.326 4.268 1.361 3.415 1.516-.481 2.2.563 4.07 6.209C118.215 81.259 119.693 84 122.298 84c3.669 0 3.808-.858 1.025-6.349-2.721-5.37-6.323-15.138-6.323-17.147 0-.651 1.125-1.696 2.5-2.322 1.532-.698 2.5-1.967 2.5-3.277 0-2.151-.855-2.225-5.15-.45-1.273.526-1.931-.191-2.88-3.136-.677-2.101-1.677-4.381-2.223-5.069-1.613-2.033-3.754-1.45-3.67 1m-59.023 4.799c-1.346.568-3.006 1.496-3.691 2.064-1.504 1.249-.686 3.948 1 3.301.777-.298 2.509 3.676 4.931 11.313 2.053 6.475 5.937 16.608 8.631 22.518 2.695 5.91 4.489 10.999 3.987 11.309-1.536.949-1.013 3.446.722 3.446 7.115 0 15.522-6.153 17.268-12.637 1.555-5.774-.778-13.169-5.448-17.269C74.516 74.392 72.304 73 71.537 73c-1.075 0-1.281-1.195-.903-5.25.563-6.048-1.431-10.86-5.843-14.093-3.121-2.289-11.977-3.193-15.737-1.608m4.192 5.201c.254.688 1.689 4.962 3.189 9.5 1.501 4.537 3.142 8.25 3.647 8.25C62.562 75 65 70.825 65 66.577 65 60.509 61.293 56 56.304 56c-2.393 0-3.371.4-3.058 1.25m45.075 3.916c-1.198.592-2.724 2.392-3.39 4-1.757 4.243-.083 7.028 6.486 10.786 5.642 3.228 8.945 6.654 7.957 8.252-.298.482-1.437.593-2.53.247-1.938-.616-5.844 1.86-5.844 3.704 0 .465 2.25.845 5 .845 5.443 0 9-2.341 9-5.923 0-2.943-4.432-7.565-10.58-11.035-4.381-2.473-5.481-3.582-5.234-5.277.216-1.477 1.349-2.414 3.632-3.002 1.88-.485 3.147-1.377 2.923-2.059-.521-1.589-4.682-1.89-7.42-.538M83.653 67.49c-2.423 2.423-2.789 6.625-1.128 12.971 1.801 6.885 5.489 12.254 9.027 13.141 5.186 1.302 10.669-5.81 7.174-9.305C96.909 82.481 95 83.353 95 86c0 2.958-1.509 3.152-3.989.512-2.201-2.343-2.223-2.545-.645-5.87.899-1.895 1.634-5.219 1.634-7.388 0-6.033-4.778-9.333-8.347-5.764M86 74c0 1.867.267 2.133 1.2 1.2.933-.933.933-1.467 0-2.4-.933-.933-1.2-.667-1.2 1.2m-21.941 5.438-2.291 2.437 4.176 8.626c2.296 4.744 4.683 8.457 5.304 8.25 2.26-.754 5.152-5.843 5.152-9.067 0-4.873-2.302-9.582-5.491-11.231-3.728-1.928-4.174-1.864-6.85.985"/><path fill="#1976D2" fill-opacity=".985" fill-rule="evenodd" d="M108.487 46.022c-.318.513.127 3.306.988 6.205 1.399 4.711 1.404 5.389.045 6.382-2.228 1.629-1.88 4.063.569 3.97 1.749-.066 2.632 1.434 5.432 9.237C119.047 81.64 120.411 84 122.563 84c2.427 0 2.53-1.897.337-6.197-3.381-6.627-7.083-18.242-5.936-18.624.555-.185 2.028-1.169 3.273-2.187 1.764-1.442 1.999-2.119 1.064-3.07-.941-.958-1.749-.859-3.768.464-1.975 1.295-2.663 1.387-2.975.399-.223-.707-.912-2.933-1.53-4.947-1.12-3.644-3.441-5.596-4.541-3.816M50.009 52.33c-2.885.752-4.61 1.796-4.823 2.92-.196 1.033.278 1.75 1.158 1.75 1.022 0 2.817 4.008 5.712 12.75 2.322 7.013 6.179 16.967 8.572 22.122 2.979 6.419 4.161 10.12 3.752 11.75-.675 2.69-.079 2.847 4.721 1.24 4.776-1.599 9.618-5.418 11.511-9.079 3.647-7.053-.879-19.396-7.971-21.736-3.347-1.105-3.424-1.247-2.505-4.578 2.002-7.249-2.682-15.415-10.009-17.451-4.291-1.191-4.351-1.189-10.118.312m2.819 3.175c-.832.833 5.792 18.868 7.089 19.301.659.219 2.021-.345 3.026-1.254 4.325-3.914 3.04-13.372-2.254-16.6-3.034-1.85-6.77-2.538-7.861-1.447m46.637 5.447c-3.234 1.311-4.626 3.661-4.283 7.233.272 2.838 1.241 3.922 6.741 7.536 9.293 6.107 10.594 8.949 4.335 9.469-2.615.217-3.841.837-4.073 2.06-.563 2.968 7.263 2.393 10.423-.767 4.076-4.077 1.619-8.809-6.788-13.073-4.733-2.4-8.176-6.024-7.21-7.588.29-.469 2.176-1.541 4.192-2.384 2.897-1.21 3.354-1.728 2.182-2.469-1.764-1.116-2.802-1.119-5.519-.017m-15.488 7.071c-3.858 3.858-1.725 16.499 3.749 22.213 3.087 3.222 7.188 3.621 9.619.935 2.02-2.231 2.172-6.759.253-7.495-1.852-.711-2.598.149-2.598 2.991 0 3.1-2.509 3.013-4.588-.161-1.506-2.299-1.508-2.809-.023-6.52 2.76-6.899 1.786-11.775-2.662-13.324-1.085-.377-2.539.15-3.75 1.361M86 74c0 1.65.45 3 1 3s1-1.35 1-3-.45-3-1-3-1 1.35-1 3m-22.209 5.291-2.708 2.218 4.243 8.488c2.438 4.878 4.961 8.627 5.932 8.814 2.136.412 5.733-5.288 5.738-9.093.008-6.013-4.778-12.781-8.969-12.682-.84.02-2.746 1.034-4.236 2.255"/></svg>